<?xml version="1.0" encoding="UTF-8" standalone="no"?><svg xmlns="http://www.w3.org/2000/svg" xmlns:xlink="http://www.w3.org/1999/xlink"><symbol viewBox="0 0 40.723749 39.718583" id="github"><path d="M20.36 0C9.116 0 0 9.116 0 20.362 0 29.36 5.834 36.99 13.925 39.684c1.019.186 1.39-.443 1.39-.983 0-.482-.017-1.764-.027-3.462-5.664 1.23-6.86-2.73-6.86-2.73-.925-2.352-2.26-2.978-2.26-2.978-1.85-1.264.14-1.239.14-1.239 2.043.145 3.118 2.1 3.118 2.1 1.817 3.11 4.767 2.212 5.927 1.692.185-1.317.71-2.214 1.292-2.723-4.521-.514-9.275-2.261-9.275-10.064 0-2.222.794-4.04 2.096-5.463-.21-.515-.908-2.585.199-5.389 0 0 1.71-.548 5.6 2.087a19.502 19.502 0 0 1 5.098-.685 19.53 19.53 0 0 1 5.097.685c3.888-2.635 5.594-2.087 5.594-2.087 1.111 2.804.412 4.874.202 5.389 1.305 1.423 2.094 3.241 2.094 5.463 0 7.823-4.761 9.544-9.297 10.048.73.629 1.382 1.871 1.382 3.771 0 2.721-.025 4.918-.025 5.585 0 .545.366 1.179 1.4.98 8.085-2.699 13.914-10.325 13.914-19.319C40.724 9.116 31.606 0 20.36 0" fill="#1b1817" fill-rule="evenodd"/></symbol></svg>